<?xml version="1.0" encoding="UTF-8" standalone="no"?>
<!-- Created with Inkscape (http://www.inkscape.org/) -->

<svg
   width="297mm"
   height="210mm"
   viewBox="0 0 297 210"
   version="1.1"
   id="svg1"
   xml:space="preserve"
   inkscape:version="1.3 (0e150ed6c4, 2023-07-21)"
   sodipodi:docname="logomarca_logotipo.v1.svg"
   xmlns:inkscape="http://www.inkscape.org/namespaces/inkscape"
   xmlns:sodipodi="http://sodipodi.sourceforge.net/DTD/sodipodi-0.dtd"
   xmlns="http://www.w3.org/2000/svg"
   xmlns:svg="http://www.w3.org/2000/svg"><sodipodi:namedview
     id="namedview1"
     pagecolor="#ffffff"
     bordercolor="#000000"
     borderopacity="0.25"
     inkscape:showpageshadow="2"
     inkscape:pageopacity="0.0"
     inkscape:pagecheckerboard="0"
     inkscape:deskcolor="#d1d1d1"
     inkscape:document-units="mm"
     inkscape:zoom="0.45344416"
     inkscape:cx="414.60452"
     inkscape:cy="406.88582"
     inkscape:window-width="1366"
     inkscape:window-height="705"
     inkscape:window-x="-8"
     inkscape:window-y="-8"
     inkscape:window-maximized="1"
     inkscape:current-layer="layer1" /><defs
     id="defs1"><rect
       x="703.50448"
       y="443.27398"
       width="0"
       height="39.696177"
       id="rect12" /><rect
       x="381.52437"
       y="467.53276"
       width="206.46841"
       height="29.488528"
       id="rect11" /><rect
       x="352.85491"
       y="471.94344"
       width="337.41751"
       height="46.312207"
       id="rect9" /><rect
       x="1422.4464"
       y="141.14196"
       width="427.83658"
       height="149.96334"
       id="rect4" /><rect
       x="1576.8204"
       y="355.06025"
       width="1021.0739"
       height="13.232059"
       id="rect3" /><rect
       x="478.55947"
       y="160.99005"
       width="522.66634"
       height="183.04348"
       id="rect2" /><rect
       height="7.0346723"
       id="rect2504"
       width="7.9207187"
       x="-1.1008456"
       y="289.81766" /></defs><g
     inkscape:label="Camada 1"
     inkscape:groupmode="layer"
     id="layer1"><g
       id="g1"
       transform="matrix(4.6083947,0,0,3.2616037,90.573532,51.302409)"
       style="opacity:0.5"><path
         d="M 13.553,16.105 A 1,1 0 0 0 13,17 v 3 a 1,1 0 0 0 0.293,0.707 l 2,2 A 1,1 0 0 0 16,23 1.011,1.011 0 0 0 16.447,22.895 l 4,-2 A 1,1 0 0 0 21,20 V 10 A 9,9 0 0 0 3,10 v 10 a 1,1 0 0 0 0.553,0.895 l 4,2 a 1,1 0 0 0 1.154,-0.188 l 2,-2 A 1,1 0 0 0 11,20 V 17 A 1,1 0 0 0 10.447,16.105 L 9,15.382 v -2.764 l 2.553,1.282 a 1,1 0 0 0 0.894,0 L 15,12.618 v 2.764 z m 2.972,-5.956 A 1,1 0 0 0 15.553,10.105 L 12,11.882 8.447,10.105 A 1,1 0 0 0 7,11 v 5 a 1,1 0 0 0 0.553,0.895 L 9,17.618 v 1.968 L 7.8,20.786 5,19.382 V 10 a 7,7 0 0 1 14,0 v 9.382 l -2.8,1.4 -1.2,-1.2 v -1.964 l 1.447,-0.723 A 1,1 0 0 0 17,16 v -5 a 1,1 0 0 0 -0.475,-0.851 z"
         id="path1" /><path
         d="m 14,6 h -4 a 1,1 0 0 0 0,2 h 4 a 1,1 0 0 0 0,-2 z"
         id="path2" /></g><g
       id="g2963"
       style="display:inline;opacity:0.2;stroke-width:0.262528;stroke-miterlimit:4;stroke-dasharray:none"
       transform="matrix(10.042061,0,0,6.2264911,113.7147,-1740.1067)"><path
         d="m 20.267578,48.617188 v 0.498046 11.064454 h -2.144531 v -9.921876 -0.5 h -0.994141 v 0.5 9.921876 H 14.992188 V 51.75 51.242188 h -1 V 51.75 60.179688 H 11.638672 11.142578 V 61.1875 h 0.496094 10.410156 0.496094 V 60.179688 H 22.048828 21.261719 V 49.115234 48.617188 Z"
         id="path2866"
         style="color:#000000;font-style:normal;font-variant:normal;font-weight:normal;font-stretch:normal;font-size:medium;line-height:normal;font-family:sans-serif;font-variant-ligatures:normal;font-variant-position:normal;font-variant-caps:normal;font-variant-numeric:normal;font-variant-alternates:normal;font-variant-east-asian:normal;font-feature-settings:normal;font-variation-settings:normal;text-indent:0;text-align:start;text-decoration:none;text-decoration-line:none;text-decoration-style:solid;text-decoration-color:#000000;letter-spacing:normal;word-spacing:normal;text-transform:none;writing-mode:lr-tb;direction:ltr;text-orientation:mixed;dominant-baseline:auto;baseline-shift:baseline;text-anchor:start;white-space:normal;shape-padding:0;shape-margin:0;inline-size:0;clip-rule:nonzero;display:inline;overflow:visible;visibility:visible;opacity:1;isolation:auto;mix-blend-mode:normal;color-interpolation:sRGB;color-interpolation-filters:linearRGB;solid-color:#000000;solid-opacity:1;vector-effect:none;fill:#000000;fill-opacity:1;fill-rule:nonzero;stroke:none;stroke-width:0.999998;stroke-linecap:square;stroke-linejoin:miter;stroke-miterlimit:4;stroke-dasharray:none;stroke-dashoffset:0;stroke-opacity:1;color-rendering:auto;image-rendering:auto;shape-rendering:auto;text-rendering:auto;enable-background:accumulate;stop-color:#000000;stop-opacity:1"
         transform="matrix(0.26326693,0,0,0.26179203,0.01575684,280.21211)" /><path
         d="m 17.195312,42.8125 v 1.005859 h 0.50586 1.341797 l -3.033203,3.082032 -1.707032,-1.730469 -3.835937,4.132812 -0.210938,0.226563 C 9.3647547,48.953899 8.3082544,48.617188 7.1738281,48.617188 c -3.1558392,0 -5.7207031,2.583422 -5.7207031,5.757812 0,3.174352 2.5648639,5.759766 5.7207031,5.759766 3.1558389,0 5.7265629,-2.585414 5.7265629,-5.759766 0,-1.669956 -0.715598,-3.171367 -1.84961,-4.224609 l 0.150391,-0.16211 3.130859,-3.371093 1.677735,1.701171 3.724609,-3.785156 v 1.359375 0.5 h 1 v -0.5 V 42.8125 H 17.701172 Z M 7.1738281,49.623047 c 2.6167423,0 4.7324219,2.119367 4.7324219,4.751953 0,2.632548 -2.1156796,4.753906 -4.7324219,4.753906 -2.6167422,0 -4.7265625,-2.121358 -4.7265625,-4.753906 0,-2.632586 2.1098203,-4.751953 4.7265625,-4.751953 z"
         id="ellipse2880"
         style="color:#000000;font-style:normal;font-variant:normal;font-weight:normal;font-stretch:normal;font-size:medium;line-height:normal;font-family:sans-serif;font-variant-ligatures:normal;font-variant-position:normal;font-variant-caps:normal;font-variant-numeric:normal;font-variant-alternates:normal;font-variant-east-asian:normal;font-feature-settings:normal;font-variation-settings:normal;text-indent:0;text-align:start;text-decoration:none;text-decoration-line:none;text-decoration-style:solid;text-decoration-color:#000000;letter-spacing:normal;word-spacing:normal;text-transform:none;writing-mode:lr-tb;direction:ltr;text-orientation:mixed;dominant-baseline:auto;baseline-shift:baseline;text-anchor:start;white-space:normal;shape-padding:0;shape-margin:0;inline-size:0;clip-rule:nonzero;display:inline;overflow:visible;visibility:visible;opacity:1;isolation:auto;mix-blend-mode:normal;color-interpolation:sRGB;color-interpolation-filters:linearRGB;solid-color:#000000;solid-opacity:1;vector-effect:none;fill:#000000;fill-opacity:1;fill-rule:nonzero;stroke:none;stroke-width:0.999998;stroke-linecap:butt;stroke-linejoin:miter;stroke-miterlimit:4;stroke-dasharray:none;stroke-dashoffset:0;stroke-opacity:1;paint-order:fill markers stroke;color-rendering:auto;image-rendering:auto;shape-rendering:auto;text-rendering:auto;enable-background:accumulate;stop-color:#000000;stop-opacity:1"
         transform="matrix(0.26326693,0,0,0.26179203,0.01575684,280.21211)" /><path
         d="m 6.6738281,51.251953 v 0.503906 0.292969 H 5.421875 V 54.875 h 2.5078125 v 0.822266 H 5.9277344 5.421875 v 1.005859 H 5.9277344 6.6738281 V 56.994141 57.5 h 1.0039063 v -0.505859 -0.291016 h 1.2460937 v -2.833984 h -2.5 v -0.814453 h 2.0039063 0.4960937 v -1.00586 h -0.4960937 -0.75 v -0.292969 -0.503906 z"
         id="path2882"
         style="color:#000000;font-style:normal;font-variant:normal;font-weight:normal;font-stretch:normal;font-size:medium;line-height:normal;font-family:sans-serif;font-variant-ligatures:normal;font-variant-position:normal;font-variant-caps:normal;font-variant-numeric:normal;font-variant-alternates:normal;font-variant-east-asian:normal;font-feature-settings:normal;font-variation-settings:normal;text-indent:0;text-align:start;text-decoration:none;text-decoration-line:none;text-decoration-style:solid;text-decoration-color:#000000;letter-spacing:normal;word-spacing:normal;text-transform:none;writing-mode:lr-tb;direction:ltr;text-orientation:mixed;dominant-baseline:auto;baseline-shift:baseline;text-anchor:start;white-space:normal;shape-padding:0;shape-margin:0;inline-size:0;clip-rule:nonzero;display:inline;overflow:visible;visibility:visible;opacity:1;isolation:auto;mix-blend-mode:normal;color-interpolation:sRGB;color-interpolation-filters:linearRGB;solid-color:#000000;solid-opacity:1;vector-effect:none;fill:#000000;fill-opacity:1;fill-rule:nonzero;stroke:none;stroke-width:0.999998;stroke-linecap:square;stroke-linejoin:miter;stroke-miterlimit:4;stroke-dasharray:none;stroke-dashoffset:0;stroke-opacity:1;color-rendering:auto;image-rendering:auto;shape-rendering:auto;text-rendering:auto;enable-background:accumulate;stop-color:#000000;stop-opacity:1"
         transform="matrix(0.26326693,0,0,0.26179203,0.01575684,280.21211)" /></g><text
       xml:space="preserve"
       transform="matrix(1.4776116,0,0,2.1213852,-905.72832,-329.97912)"
       id="text2"
       style="white-space:pre;shape-inside:url(#rect2);fill:#000000"
       x="59.379665"
       y="0" /><text
       xml:space="preserve"
       transform="scale(0.26458333)"
       id="text3"
       style="fill:#000000;white-space:pre;shape-inside:url(#rect3)" /><text
       xml:space="preserve"
       transform="scale(0.26458333)"
       id="text4"
       style="fill:#000000;font-size:66.66666667px;white-space:pre;shape-inside:url(#rect4)" /><text
       xml:space="preserve"
       transform="scale(0.26458333)"
       id="text9"
       style="fill:#000000;font-size:32px;opacity:0.5;text-align:center;white-space:pre;shape-inside:url(#rect9)" /><text
       xml:space="preserve"
       style="font-size:8.46667px;text-align:center;text-anchor:middle;opacity:0.5;fill:#000000;stroke-width:0.264583"
       x="154.04321"
       y="133.03732"
       id="text10"><tspan
         sodipodi:role="line"
         id="tspan10"
         style="stroke-width:0.264583"></tspan></text><text
       xml:space="preserve"
       transform="scale(0.26458333)"
       id="text12"
       style="fill:#000000;font-size:32px;opacity:0.5;text-align:center;-inkscape-font-specification:'Franklin Gothic Book, ';font-family:'Franklin Gothic Book';font-weight:normal;font-style:normal;font-stretch:normal;font-variant:normal;white-space:pre;shape-inside:url(#rect12)" /><text
       xml:space="preserve"
       style="font-style:normal;font-variant:normal;font-weight:normal;font-stretch:normal;font-size:9.98267px;font-family:'Franklin Gothic Book';-inkscape-font-specification:'Franklin Gothic Book, ';text-align:center;text-anchor:middle;opacity:0.85;fill:#000000;stroke-width:0.311958"
       x="172.68173"
       y="115.19614"
       id="text13"
       transform="scale(0.84813692,1.1790549)"><tspan
         sodipodi:role="line"
         id="tspan13"
         style="stroke-width:0.311958"
         x="172.68173"
         y="115.19614">Warrior's Wealth - RYM</tspan></text><text
       xml:space="preserve"
       style="font-style:normal;font-variant:normal;font-weight:normal;font-stretch:normal;font-size:8.46667px;font-family:'Franklin Gothic Book';-inkscape-font-specification:'Franklin Gothic Book, ';text-align:center;text-anchor:middle;opacity:0.5;fill:#000000;stroke-width:0.264583"
       x="145.87427"
       y="144.12381"
       id="text14"><tspan
         sodipodi:role="line"
         id="tspan14"
         style="stroke-width:0.264583"
         x="145.87427"
         y="144.12381">Raise Your Money</tspan></text></g><style
     type="text/css"
     id="style1">&#10;	.st0{fill:#B9F3F8;}&#10;	.st1{fill:#55C1FA;}&#10;	.st2{fill:#FBC34E;}&#10;	.st3{opacity:0.05;}&#10;	.st4{fill:#FFFFFF;}&#10;	.st5{fill:#7A442A;}&#10;	.st6{fill:#C77C58;}&#10;	.st7{fill:#E4EDF2;}&#10;	.st8{fill:#F25949;}&#10;	.st9{fill:#FA9B55;}&#10;	.st10{fill:#E5A533;}&#10;	.st11{fill:#6FA7AB;}&#10;	.st12{fill:#20A56C;}&#10;	.st13{fill:#F2C09E;}&#10;	.st14{fill:#F4E8D0;}&#10;	.st15{fill:#F2AB38;}&#10;	.st16{fill:#393B3D;}&#10;	.st17{fill:#ACE4E5;}&#10;	.st18{fill:#659899;}&#10;	.st19{fill:#E3FAFC;}&#10;	.st20{fill:#DDF1F2;}&#10;	.st21{fill:#16F293;}&#10;	.st22{fill:#5C3320;}&#10;	.st23{fill:#AD410D;}&#10;	.st24{fill:#8B9CA5;}&#10;	.st25{fill:#B26C50;}&#10;	.st26{fill:none;}&#10;	.st27{fill:#DAE1E5;}&#10;	.st28{fill:#425158;}&#10;	.st29{fill:#829299;}&#10;	.st30{fill:#A5795C;}&#10;	.st31{fill:#7A7468;}&#10;	.st32{fill:#7B3ABF;}&#10;	.st33{fill:#B564FF;}&#10;	.st34{fill:#2B617D;}&#10;</style></svg>
