<?xml version="1.0" encoding="UTF-8" standalone="no"?>
<!-- Created with Inkscape (http://www.inkscape.org/) -->

<svg
   width="297mm"
   height="210mm"
   viewBox="0 0 297 210"
   version="1.1"
   id="svg1"
   xml:space="preserve"
   inkscape:version="1.3 (0e150ed6c4, 2023-07-21)"
   sodipodi:docname="logomarca_logotipo.v3.svg"
   xmlns:inkscape="http://www.inkscape.org/namespaces/inkscape"
   xmlns:sodipodi="http://sodipodi.sourceforge.net/DTD/sodipodi-0.dtd"
   xmlns:xlink="http://www.w3.org/1999/xlink"
   xmlns="http://www.w3.org/2000/svg"
   xmlns:svg="http://www.w3.org/2000/svg"><sodipodi:namedview
     id="namedview1"
     pagecolor="#ffffff"
     bordercolor="#000000"
     borderopacity="0.25"
     inkscape:showpageshadow="2"
     inkscape:pageopacity="0.0"
     inkscape:pagecheckerboard="0"
     inkscape:deskcolor="#d1d1d1"
     inkscape:document-units="mm"
     showgrid="false"
     inkscape:zoom="0.64126689"
     inkscape:cx="520.84398"
     inkscape:cy="387.51416"
     inkscape:window-width="1366"
     inkscape:window-height="705"
     inkscape:window-x="-8"
     inkscape:window-y="-8"
     inkscape:window-maximized="1"
     inkscape:current-layer="layer1" /><defs
     id="defs1"><linearGradient
       id="swatch9"
       inkscape:swatch="solid"><stop
         style="stop-color:#000000;stop-opacity:1;"
         offset="0"
         id="stop10" /></linearGradient><linearGradient
       inkscape:collect="always"
       xlink:href="#swatch9"
       id="linearGradient28"
       gradientUnits="userSpaceOnUse"
       gradientTransform="matrix(0.77184594,0,0,0.7718459,32.65311,14.688857)"
       x1="100.4027"
       y1="147.11388"
       x2="141.14854"
       y2="147.11388" /></defs><g
     inkscape:label="Camada 1"
     inkscape:groupmode="layer"
     id="layer1"><g
       id="g1"
       transform="matrix(-0.08695596,0,0,-0.09782123,125.52079,121.1523)"><path
         d="m 383.31,128.69 a 5.92,5.92 0 0 0 -8.37,0 l -4.76,4.76 c -8.92,-5.64 -21.07,-6.25 -29.87,-0.39 -5.52,3.67 -17.1,15.05 -5.52,41.15 5.59,12.58 5.12,22.24 -1.26,26.5 -5.73,3.83 -14.95,2.77 -19.72,-2.28 -9.19,-9.69 -5.81,-16.83 -5.35,-17.69 a 5.92,5.92 0 0 0 -10.2,-6 c -0.33,0.56 -7.15,12.63 3.35,27.32 l -4.53,4.52 a 5.92,5.92 0 1 0 8.37,8.37 l 4.52,-4.51 a 28.83,28.83 0 0 0 15.37,4.43 26.53,26.53 0 0 0 14.75,-4.29 c 5.52,-3.67 17.1,-15.05 5.52,-41.15 -5.59,-12.58 -5.13,-22.23 1.26,-26.5 5.77,-3.8 14.94,-2.75 19.72,2.28 9.25,9.76 5.77,16.93 5.4,17.61 a 5.92,5.92 0 0 0 10.14,6.11 c 0.34,-0.56 7.16,-12.63 -3.35,-27.31 l 4.53,-4.53 a 5.92,5.92 0 0 0 0,-8.4 z"
         id="path1" /><path
         d="M 484.29,58.1 453.9,27.71 a 5.92,5.92 0 0 0 -8.37,0 L 374.17,99.07 A 72.9,72.9 0 0 0 328.43,92.44 L 298.49,68.06 a 44.9,44.9 0 0 0 -60.25,3.08 l -11.15,11.14 a 5.93,5.93 0 0 0 0,8.37 l 42.76,42.76 a 80.48,80.48 0 0 0 -8.9,51.34 L 31.43,392.55 a 5.87,5.87 0 0 0 -1.94,4.14 L 26,479.82 c 0,0.15 0,0.29 0,0.43 v 0 a 5.89,5.89 0 0 0 1,3.17 v 0 a 5.78,5.78 0 0 0 1,1.11 6,6 0 0 0 3.24,1.47 v 0 c 0,-0.09 0.37,0 0.56,0 h 0.42 l 83.09,-3.51 a 5.87,5.87 0 0 0 4.14,-1.94 l 207.8,-229.52 a 81.67,81.67 0 0 0 12.94,1.23 80.52,80.52 0 0 0 38.4,-10.13 l 42.76,42.76 a 5.92,5.92 0 0 0 8.37,0 l 11.14,-11.14 a 44.91,44.91 0 0 0 3.08,-60.26 l -24.38,-29.93 a 80.76,80.76 0 0 0 1.15,-11.77 79.78,79.78 0 0 0 -7.78,-34 l 71.36,-71.36 a 5.92,5.92 0 0 0 0,-8.33 z m -244.65,28.37 7,-7 A 33.08,33.08 0 0 1 291,77.24 L 314,96 a 79.83,79.83 0 0 0 -30.75,18.91 79.29,79.29 0 0 0 -6.83,8.37 z m -198.43,313.2 223.08,-202 a 79.43,79.43 0 0 0 15.21,26.44 L 38.44,465.19 Z m 71.12,71.12 -65.52,2.77 241.06,-241.06 a 79.43,79.43 0 0 0 26.44,15.21 z m 179.3,-250.42 a 68.68,68.68 0 1 1 97.12,0 68.74,68.74 0 0 1 -97.12,0 z M 416,198 l 18.73,23 a 33.08,33.08 0 0 1 -2.27,44.41 l -7,7 -36.78,-36.79 a 79.29,79.29 0 0 0 8.37,-6.83 A 79.76,79.76 0 0 0 416,198 Z m -9,-71 a 80.86,80.86 0 0 0 -22,-22 l 64.68,-64.68 22,22 z"
         id="path4"
         style="opacity:0.9" /></g><g
       id="g2"
       transform="matrix(0.08695596,0,0,-0.09782123,40.215258,120.79807)"><path
         d="m 383.31,128.69 a 5.92,5.92 0 0 0 -8.37,0 l -4.76,4.76 c -8.92,-5.64 -21.07,-6.25 -29.87,-0.39 -5.52,3.67 -17.1,15.05 -5.52,41.15 5.59,12.58 5.12,22.24 -1.26,26.5 -5.73,3.83 -14.95,2.77 -19.72,-2.28 -9.19,-9.69 -5.81,-16.83 -5.35,-17.69 a 5.92,5.92 0 0 0 -10.2,-6 c -0.33,0.56 -7.15,12.63 3.35,27.32 l -4.53,4.52 a 5.92,5.92 0 1 0 8.37,8.37 l 4.52,-4.51 a 28.83,28.83 0 0 0 15.37,4.43 26.53,26.53 0 0 0 14.75,-4.29 c 5.52,-3.67 17.1,-15.05 5.52,-41.15 -5.59,-12.58 -5.13,-22.23 1.26,-26.5 5.77,-3.8 14.94,-2.75 19.72,2.28 9.25,9.76 5.77,16.93 5.4,17.61 a 5.92,5.92 0 0 0 10.14,6.11 c 0.34,-0.56 7.16,-12.63 -3.35,-27.31 l 4.53,-4.53 a 5.92,5.92 0 0 0 0,-8.4 z"
         id="path1-3" /><path
         d="M 484.29,58.1 453.9,27.71 a 5.92,5.92 0 0 0 -8.37,0 L 374.17,99.07 A 72.9,72.9 0 0 0 328.43,92.44 L 298.49,68.06 a 44.9,44.9 0 0 0 -60.25,3.08 l -11.15,11.14 a 5.93,5.93 0 0 0 0,8.37 l 42.76,42.76 a 80.48,80.48 0 0 0 -8.9,51.34 L 31.43,392.55 a 5.87,5.87 0 0 0 -1.94,4.14 L 26,479.82 c 0,0.15 0,0.29 0,0.43 v 0 a 5.89,5.89 0 0 0 1,3.17 v 0 a 5.78,5.78 0 0 0 1,1.11 6,6 0 0 0 3.24,1.47 v 0 c 0,-0.09 0.37,0 0.56,0 h 0.42 l 83.09,-3.51 a 5.87,5.87 0 0 0 4.14,-1.94 l 207.8,-229.52 a 81.67,81.67 0 0 0 12.94,1.23 80.52,80.52 0 0 0 38.4,-10.13 l 42.76,42.76 a 5.92,5.92 0 0 0 8.37,0 l 11.14,-11.14 a 44.91,44.91 0 0 0 3.08,-60.26 l -24.38,-29.93 a 80.76,80.76 0 0 0 1.15,-11.77 79.78,79.78 0 0 0 -7.78,-34 l 71.36,-71.36 a 5.92,5.92 0 0 0 0,-8.33 z m -244.65,28.37 7,-7 A 33.08,33.08 0 0 1 291,77.24 L 314,96 a 79.83,79.83 0 0 0 -30.75,18.91 79.29,79.29 0 0 0 -6.83,8.37 z m -198.43,313.2 223.08,-202 a 79.43,79.43 0 0 0 15.21,26.44 L 38.44,465.19 Z m 71.12,71.12 -65.52,2.77 241.06,-241.06 a 79.43,79.43 0 0 0 26.44,15.21 z m 179.3,-250.42 a 68.68,68.68 0 1 1 97.12,0 68.74,68.74 0 0 1 -97.12,0 z M 416,198 l 18.73,23 a 33.08,33.08 0 0 1 -2.27,44.41 l -7,7 -36.78,-36.79 a 79.29,79.29 0 0 0 8.37,-6.83 A 79.76,79.76 0 0 0 416,198 Z m -9,-71 a 80.86,80.86 0 0 0 -22,-22 l 64.68,-64.68 22,22 z"
         id="path4-1"
         style="opacity:0.9" /></g><g
       id="layer1-6"
       transform="matrix(0,-2.0903561,2.7595363,0,-2776.8849,110.8533)"
       style="opacity:0.35"><path
         d="m 11,1021.8622 v 1 c 0,1.0987 0.9014,2 2,2 4.4242,0 8,3.5758 8,8 v 7 c 0,4.4242 -3.5758,8 -8,8 -1.0986,10e-5 -2,0.9014 -2,2 v 1 h 1 v -1 c 0,-0.5582 0.4418,-1 1,-1 4.9646,0 9,-4.0353 9,-9 v -7 c 0,-4.9646 -4.0354,-9 -9,-9 -0.5582,0 -1,-0.4418 -1,-1 v -1 z"
         id="path12696"
         style="color:#000000;font-style:normal;font-variant:normal;font-weight:normal;font-stretch:normal;font-size:medium;line-height:normal;font-family:sans-serif;text-indent:0;text-align:start;text-decoration:none;text-decoration-line:none;text-decoration-style:solid;text-decoration-color:#000000;letter-spacing:normal;word-spacing:normal;text-transform:none;writing-mode:lr-tb;direction:ltr;baseline-shift:baseline;text-anchor:start;white-space:normal;clip-rule:nonzero;display:inline;overflow:visible;visibility:visible;opacity:1;isolation:auto;mix-blend-mode:normal;color-interpolation:sRGB;color-interpolation-filters:linearRGB;solid-color:#000000;solid-opacity:1;fill:#000000;fill-opacity:1;fill-rule:evenodd;stroke:none;stroke-width:1px;stroke-linecap:butt;stroke-linejoin:miter;stroke-miterlimit:4;stroke-dasharray:none;stroke-dashoffset:0;stroke-opacity:1;color-rendering:auto;image-rendering:auto;shape-rendering:auto;text-rendering:auto;enable-background:accumulate" /><path
         d="m 11,1025.1122 v 22.5 h 1 v -22.5 z"
         id="path12698"
         style="color:#000000;font-style:normal;font-variant:normal;font-weight:normal;font-stretch:normal;font-size:medium;line-height:normal;font-family:sans-serif;text-indent:0;text-align:start;text-decoration:none;text-decoration-line:none;text-decoration-style:solid;text-decoration-color:#000000;letter-spacing:normal;word-spacing:normal;text-transform:none;writing-mode:lr-tb;direction:ltr;baseline-shift:baseline;text-anchor:start;white-space:normal;clip-rule:nonzero;display:inline;overflow:visible;visibility:visible;opacity:1;isolation:auto;mix-blend-mode:normal;color-interpolation:sRGB;color-interpolation-filters:linearRGB;solid-color:#000000;solid-opacity:1;fill:#000000;fill-opacity:1;fill-rule:evenodd;stroke:none;stroke-width:1px;stroke-linecap:butt;stroke-linejoin:miter;stroke-miterlimit:4;stroke-dasharray:none;stroke-dashoffset:0;stroke-opacity:1;color-rendering:auto;image-rendering:auto;shape-rendering:auto;text-rendering:auto;enable-background:accumulate" /><path
         d="m 25.9959,1034.3627 a 0.49982726,0.4997604 0 0 0 -0.4959,0.4997 v 2.9983 a 0.49982726,0.4997604 0 0 0 0.6442,0.4802 l 4.9978,-1.4991 a 0.49982726,0.4997604 0 0 0 0,-0.9585 l -4.9978,-1.4991 a 0.49982726,0.4997604 0 0 0 -0.1483,-0.022 z m 0.5037,1.1732 2.7565,0.8277 -2.7565,0.8256 z"
         id="path12700"
         style="color:#000000;font-style:normal;font-variant:normal;font-weight:normal;font-stretch:normal;font-size:medium;line-height:normal;font-family:sans-serif;text-indent:0;text-align:start;text-decoration:none;text-decoration-line:none;text-decoration-style:solid;text-decoration-color:#000000;letter-spacing:normal;word-spacing:normal;text-transform:none;writing-mode:lr-tb;direction:ltr;baseline-shift:baseline;text-anchor:start;white-space:normal;clip-rule:nonzero;display:inline;overflow:visible;visibility:visible;opacity:1;isolation:auto;mix-blend-mode:normal;color-interpolation:sRGB;color-interpolation-filters:linearRGB;solid-color:#000000;solid-opacity:1;fill:#000000;fill-opacity:1;fill-rule:evenodd;stroke:none;stroke-width:1px;stroke-linecap:round;stroke-linejoin:round;stroke-miterlimit:4;stroke-dasharray:none;stroke-dashoffset:0;stroke-opacity:1;color-rendering:auto;image-rendering:auto;shape-rendering:auto;text-rendering:auto;enable-background:accumulate" /><path
         d="m 2.2509,1035.8622 v 1 h 24.25 v -1 z"
         id="path12702"
         style="color:#000000;font-style:normal;font-variant:normal;font-weight:normal;font-stretch:normal;font-size:medium;line-height:normal;font-family:sans-serif;text-indent:0;text-align:start;text-decoration:none;text-decoration-line:none;text-decoration-style:solid;text-decoration-color:#000000;letter-spacing:normal;word-spacing:normal;text-transform:none;writing-mode:lr-tb;direction:ltr;baseline-shift:baseline;text-anchor:start;white-space:normal;clip-rule:nonzero;display:inline;overflow:visible;visibility:visible;opacity:1;isolation:auto;mix-blend-mode:normal;color-interpolation:sRGB;color-interpolation-filters:linearRGB;solid-color:#000000;solid-opacity:1;fill:#000000;fill-opacity:1;fill-rule:evenodd;stroke:none;stroke-width:1px;stroke-linecap:butt;stroke-linejoin:miter;stroke-miterlimit:4;stroke-dasharray:none;stroke-dashoffset:0;stroke-opacity:1;color-rendering:auto;image-rendering:auto;shape-rendering:auto;text-rendering:auto;enable-background:accumulate" /><path
         d="m 4.0007,1034.3619 a 0.49989247,0.49976905 0 0 0 -0.3475,0.8588 l 1.1403,1.14 -1.1403,1.1419 a 0.49989247,0.49976905 0 1 0 0.7068,0.7067 l 1.4937,-1.4952 a 0.49989247,0.49976905 0 0 0 0,-0.7067 L 4.36,1034.5142 a 0.49989247,0.49976905 0 0 0 -0.3593,-0.1523 z"
         id="path12706"
         style="color:#000000;font-style:normal;font-variant:normal;font-weight:normal;font-stretch:normal;font-size:medium;line-height:normal;font-family:sans-serif;text-indent:0;text-align:start;text-decoration:none;text-decoration-line:none;text-decoration-style:solid;text-decoration-color:#000000;letter-spacing:normal;word-spacing:normal;text-transform:none;writing-mode:lr-tb;direction:ltr;baseline-shift:baseline;text-anchor:start;white-space:normal;clip-rule:nonzero;display:inline;overflow:visible;visibility:visible;opacity:1;isolation:auto;mix-blend-mode:normal;color-interpolation:sRGB;color-interpolation-filters:linearRGB;solid-color:#000000;solid-opacity:1;fill:#000000;fill-opacity:1;fill-rule:evenodd;stroke:none;stroke-width:1px;stroke-linecap:round;stroke-linejoin:round;stroke-miterlimit:4;stroke-dasharray:none;stroke-dashoffset:0;stroke-opacity:1;color-rendering:auto;image-rendering:auto;shape-rendering:auto;text-rendering:auto;enable-background:accumulate" /><path
         d="m 1.0004,1034.3619 a 0.49989247,0.49976905 0 0 0 -0.3475,0.8588 l 1.1403,1.14 -1.1403,1.1419 a 0.49989247,0.49976905 0 1 0 0.7068,0.7067 l 1.4937,-1.4952 a 0.49989247,0.49976905 0 0 0 0,-0.7067 l -1.4937,-1.4932 a 0.49989247,0.49976905 0 0 0 -0.3593,-0.1523 z"
         id="path14552"
         style="color:#000000;font-style:normal;font-variant:normal;font-weight:normal;font-stretch:normal;font-size:medium;line-height:normal;font-family:sans-serif;text-indent:0;text-align:start;text-decoration:none;text-decoration-line:none;text-decoration-style:solid;text-decoration-color:#000000;letter-spacing:normal;word-spacing:normal;text-transform:none;writing-mode:lr-tb;direction:ltr;baseline-shift:baseline;text-anchor:start;white-space:normal;clip-rule:nonzero;display:inline;overflow:visible;visibility:visible;opacity:1;isolation:auto;mix-blend-mode:normal;color-interpolation:sRGB;color-interpolation-filters:linearRGB;solid-color:#000000;solid-opacity:1;fill:#000000;fill-opacity:1;fill-rule:evenodd;stroke:none;stroke-width:1px;stroke-linecap:round;stroke-linejoin:round;stroke-miterlimit:4;stroke-dasharray:none;stroke-dashoffset:0;stroke-opacity:1;color-rendering:auto;image-rendering:auto;shape-rendering:auto;text-rendering:auto;enable-background:accumulate" /></g><circle
       style="opacity:0.562;fill:#7fb694;fill-opacity:1;stroke-width:0.145264"
       id="path2"
       cx="82.885147"
       cy="84.428856"
       r="42.5" /><text
       xml:space="preserve"
       style="font-style:normal;font-variant:normal;font-weight:normal;font-stretch:normal;font-size:11.6239px;line-height:0px;font-family:'Juice ITC';-inkscape-font-specification:'Juice ITC';text-align:center;text-anchor:middle;opacity:0.9;fill:#7fb694;fill-opacity:1;stroke-width:0.363246"
       x="213.90588"
       y="64.232338"
       id="text3"
       transform="scale(0.72838512,1.3729001)"><tspan
         sodipodi:role="line"
         id="tspan3"
         style="stroke-width:0.363246"
         x="213.90588"
         y="64.232338">Warrior's Weath - RYM</tspan></text><text
       xml:space="preserve"
       style="font-style:normal;font-variant:normal;font-weight:normal;font-stretch:normal;font-size:6.53496px;line-height:0px;font-family:'Juice ITC';-inkscape-font-specification:'Juice ITC';text-align:center;text-anchor:middle;opacity:0.9;fill:#7fb694;fill-opacity:1;stroke:url(#linearGradient28);stroke-width:0.204539;stroke-linecap:round;stroke-dasharray:none;stroke-opacity:1"
       x="125.87966"
       y="129.98354"
       id="text4"
       transform="scale(1.2975304,0.77069485)"><tspan
         sodipodi:role="line"
         id="tspan4"
         style="stroke:url(#linearGradient28);stroke-width:0.204539;stroke-linecap:round;stroke-dasharray:none;stroke-opacity:1"
         x="125.87966"
         y="129.98354">Raise Your Money</tspan></text><g
       id="cash"
       transform="matrix(0.67706326,0,0,0.53265425,127.61702,90.359321)"><path
         d="M 21,10.77 V 6 C 21,4.63 18.15,4 15.5,4 A 15,15 0 0 0 13,4.2 V 4 C 13,2.63 10.15,2 7.5,2 4.85,2 2,2.63 2,4 v 15 c 0,1.37 2.85,2 5.5,2 A 14.7,14.7 0 0 0 10.33,20.73 7.49,7.49 0 0 0 21,10.77 Z M 17.89,7.82 A 7.34,7.34 0 0 0 20,7.21 V 9.42 A 7.55,7.55 0 0 0 17.89,7.82 Z M 7.5,6 A 10.93,10.93 0 0 0 12,5.21 V 7 C 11.92,7.28 10.42,8 7.5,8 4.58,8 3.08,7.27 3,7 V 5.21 A 10.93,10.93 0 0 0 7.5,6 Z M 7.44,12 A 6.91,6.91 0 0 0 7,14 C 4.4,13.92 3.05,13.27 3,13 V 11.21 A 11,11 0 0 0 7.44,12 Z M 3,16 V 14.21 A 10.22,10.22 0 0 0 7,15 7.49,7.49 0 0 0 7.42,17 C 4.56,17 3.08,16.27 3,16 Z M 7.88,11 H 7.5 C 4.58,11 3.08,10.27 3,10 V 8.21 A 10.93,10.93 0 0 0 7.5,9 15.5,15.5 0 0 0 9.56,8.87 7.53,7.53 0 0 0 7.88,11 Z M 15.5,5 c 2.93,0 4.43,0.73 4.5,1 0.07,0.27 -1.57,1 -4.5,1 A 14.59,14.59 0 0 1 13,6.79 V 5.21 A 14.59,14.59 0 0 1 15.5,5 Z M 7.5,3 C 10.4,3 11.9,3.72 12,4 11.9,4.27 10.5,4.94 7.81,5 H 7.5 C 4.58,5 3.08,4.27 3,4 V 4 C 3.08,3.73 4.58,3 7.5,3 Z m 0,17 C 4.58,20 3.08,19.27 3,19 V 17.21 A 10.93,10.93 0 0 0 7.5,18 H 7.87 A 7.5,7.5 0 0 0 9.29,19.89 14.67,14.67 0 0 1 7.5,20 Z m 7,1 A 6.5,6.5 0 1 1 21,14.5 6.51,6.51 0 0 1 14.5,21 Z"
         id="path1-34" /><path
         d="m 15,14 v -2.3 a 1.29,1.29 0 0 1 1,0.88 0.51419841,0.51419841 0 0 0 1,-0.24 2.38,2.38 0 0 0 -2,-1.62 V 10.5 a 0.5,0.5 0 0 0 -1,0 v 0.21 a 2.27,2.27 0 0 0 -2,2.12 2.31,2.31 0 0 0 0.05,0.46 A 2.39,2.39 0 0 0 14,15 v 2.31 a 1.29,1.29 0 0 1 -1,-0.88 0.51419841,0.51419841 0 1 0 -1,0.24 2.36,2.36 0 0 0 2,1.61 v 0.22 a 0.5,0.5 0 0 0 1,0 V 18.28 A 2.36,2.36 0 0 0 17,16.61 2.28,2.28 0 0 0 17.05,16.17 2.28,2.28 0 0 0 15,14 Z m -2,-1 a 0.78,0.78 0 0 1 0,-0.22 1.23,1.23 0 0 1 1,-1.09 v 2.19 a 1.3,1.3 0 0 1 -1,-0.83 z m 3,3.38 a 1.29,1.29 0 0 1 -1,0.88 v -2.19 a 1.23,1.23 0 0 1 1,1.1 0.82,0.82 0 0 1 0,0.21 z"
         id="path2-7" /></g></g></svg>
